<svg id="图层_1" data-name="图层 1" xmlns="http://www.w3.org/2000/svg" xmlns:xlink="http://www.w3.org/1999/xlink" viewBox="0 0 40 40"><defs><style>.cls-1{fill:none;}.cls-2{fill:url(#未命名的渐变_22);}.cls-3{fill:url(#未命名的渐变_136);}.cls-4{fill:url(#未命名的渐变_22-2);}.cls-5{fill:url(#未命名的渐变_22-3);}</style><linearGradient id="未命名的渐变_22" x1="18.51" y1="2.41" x2="29.71" y2="21.8" gradientUnits="userSpaceOnUse"><stop offset="0" stop-color="#bccef7"/><stop offset="1" stop-color="#7380eb"/></linearGradient><linearGradient id="未命名的渐变_136" x1="2" y1="18.74" x2="38" y2="18.74" gradientUnits="userSpaceOnUse"><stop offset="0" stop-color="#fffcfb"/><stop offset="1" stop-color="#feeee7"/></linearGradient><linearGradient id="未命名的渐变_22-2" x1="30.22" y1="29.38" x2="30.22" y2="37.3" xlink:href="#未命名的渐变_22"/><linearGradient id="未命名的渐变_22-3" x1="12.24" y1="33.87" x2="12.24" y2="39.09" xlink:href="#未命名的渐变_22"/></defs><rect class="cls-1" width="40" height="40"/><circle class="cls-2" cx="24.11" cy="12.11" r="11.19"/><path class="cls-3" d="M37.7,27.55a9.86,9.86,0,0,0-9.58-12.27,9.74,9.74,0,0,0-3.3.58A12.29,12.29,0,0,0,3.22,27.55Z"/><path class="cls-4" d="M33.16,34.37a2.94,2.94,0,0,1-5.87,0c0-1.63,2.93-5,2.93-5S33.16,32.74,33.16,34.37Z"/><path class="cls-5" d="M14.18,37.15a1.94,1.94,0,1,1-3.87,0c0-1.06,1.93-3.28,1.93-3.28S14.18,36.09,14.18,37.15Z"/></svg>