<svg id="图层_1" data-name="图层 1" xmlns="http://www.w3.org/2000/svg" xmlns:xlink="http://www.w3.org/1999/xlink" viewBox="0 0 25 25"><defs><style>.cls-1{fill:url(#未命名的渐变);}</style><linearGradient id="未命名的渐变" x1="2.49" y1="15.38" x2="22.49" y2="15.38" gradientTransform="matrix(1, 0, 0, -1, 0, 27.88)" gradientUnits="userSpaceOnUse"><stop offset="0" stop-color="#0ea8f9"/><stop offset="1" stop-color="#07e8e2"/></linearGradient></defs><g id="图层_3" data-name="图层 3"><path class="cls-1" d="M13.41,3.49l2.3,4.68a1,1,0,0,0,.77.55l5.15.75a1,1,0,0,1,.88,1.11,1,1,0,0,1-.32.62L18.5,14.83a1,1,0,0,0-.29.9l.88,5.13a1,1,0,0,1-.75,1.2.93.93,0,0,1-.76-.13L13,19.51a1,1,0,0,0-.94,0L7.42,21.93a1,1,0,0,1-1.36-.38A1,1,0,0,1,6,20.86l.88-5.13a1,1,0,0,0-.33-.9L2.81,11.2a1,1,0,0,1-.06-1.41,1,1,0,0,1,.62-.32L8.5,8.72a1,1,0,0,0,.77-.55l2.32-4.68A1,1,0,0,1,12.91,3,1,1,0,0,1,13.41,3.49Z"/></g></svg>