<svg id="图层_1" data-name="图层 1" xmlns="http://www.w3.org/2000/svg" xmlns:xlink="http://www.w3.org/1999/xlink" viewBox="0 0 40 40"><defs><style>.cls-1{fill:none;}.cls-2{fill:url(#未命名的渐变_22);}.cls-3{fill:url(#未命名的渐变_22-2);}.cls-4{fill:url(#未命名的渐变_22-3);}.cls-5{fill:#f8c98b;}.cls-6{fill:url(#未命名的渐变_136);}</style><linearGradient id="未命名的渐变_22" x1="31.47" y1="22.31" x2="31.47" y2="29.46" gradientUnits="userSpaceOnUse"><stop offset="0" stop-color="#bccef7"/><stop offset="1" stop-color="#7380eb"/></linearGradient><linearGradient id="未命名的渐变_22-2" x1="7.47" y1="18.09" x2="7.47" y2="25.24" xlink:href="#未命名的渐变_22"/><linearGradient id="未命名的渐变_22-3" x1="21.62" y1="32.65" x2="21.62" y2="37.35" xlink:href="#未命名的渐变_22"/><linearGradient id="未命名的渐变_136" x1="2" y1="11.28" x2="38" y2="11.28" gradientUnits="userSpaceOnUse"><stop offset="0" stop-color="#fffcfb"/><stop offset="1" stop-color="#feeee7"/></linearGradient></defs><rect class="cls-1" width="40" height="40"/><path class="cls-2" d="M34.12,26.81a2.65,2.65,0,1,1-5.29,0c0-1.46,2.64-4.5,2.64-4.5S34.12,25.35,34.12,26.81Z"/><path class="cls-3" d="M10.11,22.59a2.65,2.65,0,1,1-5.29,0c0-1.46,2.65-4.5,2.65-4.5S10.11,21.13,10.11,22.59Z"/><path class="cls-4" d="M23.37,35.61a1.75,1.75,0,0,1-3.49,0c0-1,1.74-3,1.74-3S23.37,34.65,23.37,35.61Z"/><polygon class="cls-5" points="21.28 20.09 19.23 24 26.98 25.54 12.6 37.54 18.7 27.52 12.4 26.08 17.45 20.09 21.28 20.09"/><path class="cls-6" d="M37.7,20.09A9.87,9.87,0,0,0,24.82,8.39a12.3,12.3,0,0,0-21.6,11.7Z"/></svg>