<svg id="图层_1" data-name="图层 1" xmlns="http://www.w3.org/2000/svg" viewBox="0 0 18 18"><defs><style>.cls-1{fill:none;}.cls-2{fill:#b8bac2;}</style></defs><rect class="cls-1" width="18" height="18"/><path class="cls-2" d="M16.91,6.3H15.35a.54.54,0,0,0-.21,0l-.7-2.12a2.05,2.05,0,0,0-2.12-1.79H5.7A2.07,2.07,0,0,0,3.58,4.23L2.87,6.36a.57.57,0,0,0-.22-.07H1.09a.44.44,0,0,0-.44.44v.38a.44.44,0,0,0,.44.43l.59.1a2.66,2.66,0,0,0-.29,1.27l-.22,2.5a1.62,1.62,0,0,0,0,.22.71.71,0,0,0,0,.14v3a.78.78,0,0,0,.77.78H3.13a.81.81,0,0,0,.55-.23.76.76,0,0,0,.23-.55v-1h10.2v1a.77.77,0,0,0,.77.78h1.19a.79.79,0,0,0,.78-.78v-3a.78.78,0,0,0,0-.14,1.64,1.64,0,0,0,0-.22l-.22-2.5a2.71,2.71,0,0,0-.3-1.27l.58-.1a.43.43,0,0,0,.31-.12.48.48,0,0,0,.13-.31V6.73a.44.44,0,0,0-.44-.43ZM4.1,5.85l.51-1.37v0c0-.27.17-.32.34-.54h8.1c.17.22.28.28.33.54l.52,1.41.2.77a1.31,1.31,0,0,1-1.28,1H5.18a1.31,1.31,0,0,1-1.28-1Zm.36,6.54A1.18,1.18,0,1,1,4.56,10a1.18,1.18,0,0,1-.1,2.35ZM11,11.52a.34.34,0,0,1-.35.35H7.38A.35.35,0,0,1,7,11.52v-1a.35.35,0,0,1,.35-.35h3.3a.35.35,0,0,1,.35.35Zm2.52.87a1.18,1.18,0,0,1-1.18-1.17,1.19,1.19,0,0,1,.35-.84,1.18,1.18,0,0,1,1.66,0,1.17,1.17,0,0,1-.83,2Zm0,0"/></svg>