<svg id="图层_1" data-name="图层 1" xmlns="http://www.w3.org/2000/svg" xmlns:xlink="http://www.w3.org/1999/xlink" viewBox="0 0 30.67 30.67"><defs><style>.cls-1{fill:url(#未命名的渐变_368);}.cls-2{fill:#fff;}.cls-3{fill:none;}</style><linearGradient id="未命名的渐变_368" x1="21.34" y1="2.41" x2="7.94" y2="25.6" gradientUnits="userSpaceOnUse"><stop offset="0" stop-color="#f2404a"/><stop offset="1" stop-color="#de3b58"/></linearGradient></defs><path class="cls-1" d="M27.34,12.8A12,12,0,1,0,12.15,24.36l3.19,5.51,3.18-5.51A12,12,0,0,0,27.34,12.8Z"/><path class="cls-2" d="M18.74,14.57a.54.54,0,0,1-.45-.82,3.39,3.39,0,0,0,.51-1.81,3.47,3.47,0,1,0-6.42,1.81.54.54,0,0,1-.07.66.57.57,0,0,1-.38.16.54.54,0,0,1-.45-.25,4.54,4.54,0,1,1,7.71,0A.53.53,0,0,1,18.74,14.57Z"/><path class="cls-2" d="M10.14,16.36a.52.52,0,0,1-.43-.21,6.94,6.94,0,0,1-1.4-4.21,7,7,0,1,1,14.05,0A6.86,6.86,0,0,1,21,16.15a.5.5,0,0,1-.42.21.54.54,0,0,1-.38-.15.52.52,0,0,1,0-.7A6,6,0,0,0,13,6.44a6,6,0,0,0-1.89,1.28,6,6,0,0,0-1.28,6.54,5.73,5.73,0,0,0,.72,1.25.53.53,0,0,1-.05.7A.51.51,0,0,1,10.14,16.36Z"/><path class="cls-2" d="M16.59,19.69h.68a.06.06,0,0,1,.06.06v.87s0,.07-.06.07H13.4s-.06,0-.06-.07v-.87a.06.06,0,0,1,.06-.06h.69a.51.51,0,0,0,.5-.5V14.38a1,1,0,0,0-.42-.81,2,2,0,1,1,2.33,0,1,1,0,0,0-.41.8v4.82a.5.5,0,0,0,.5.5Zm0,0"/><rect class="cls-3" width="30.67" height="30.67"/></svg>