<svg id="图层_1" data-name="图层 1" xmlns="http://www.w3.org/2000/svg" xmlns:xlink="http://www.w3.org/1999/xlink" viewBox="0 0 40 40"><defs><style>.cls-1{fill:none;}.cls-2{fill:url(#未命名的渐变_136);}.cls-3{fill:url(#未命名的渐变_22);}.cls-4{fill:url(#未命名的渐变_22-2);}.cls-5{fill:url(#未命名的渐变_22-3);}.cls-6{fill:url(#未命名的渐变_22-4);}.cls-7{fill:url(#未命名的渐变_22-5);}</style><linearGradient id="未命名的渐变_136" x1="2" y1="11.37" x2="38" y2="11.37" gradientUnits="userSpaceOnUse"><stop offset="0" stop-color="#fffcfb"/><stop offset="1" stop-color="#feeee7"/></linearGradient><linearGradient id="未命名的渐变_22" x1="28.62" y1="21.13" x2="28.62" y2="28.27" gradientUnits="userSpaceOnUse"><stop offset="0" stop-color="#bccef7"/><stop offset="1" stop-color="#7380eb"/></linearGradient><linearGradient id="未命名的渐变_22-2" x1="12.07" y1="26.48" x2="12.07" y2="33.63" xlink:href="#未命名的渐变_22"/><linearGradient id="未命名的渐变_22-3" x1="5.72" y1="23.73" x2="5.72" y2="28.44" xlink:href="#未命名的渐变_22"/><linearGradient id="未命名的渐变_22-4" x1="21.62" y1="32.74" x2="21.62" y2="37.44" xlink:href="#未命名的渐变_22"/><linearGradient id="未命名的渐变_22-5" x1="34.44" y1="27.7" x2="34.44" y2="32.41" xlink:href="#未命名的渐变_22"/></defs><rect class="cls-1" width="40" height="40"/><path class="cls-2" d="M37.7,20.18A9.86,9.86,0,0,0,28.12,7.91a9.74,9.74,0,0,0-3.3.58A12.29,12.29,0,0,0,3.22,20.18Z"/><path class="cls-3" d="M31.27,25.63a2.65,2.65,0,0,1-5.3,0c0-1.47,2.65-4.5,2.65-4.5S31.27,24.16,31.27,25.63Z"/><path class="cls-4" d="M14.72,31a2.65,2.65,0,1,1-5.3,0c0-1.46,2.65-4.5,2.65-4.5S14.72,29.52,14.72,31Z"/><path class="cls-5" d="M7.47,26.7A1.75,1.75,0,0,1,4,26.7c0-1,1.74-3,1.74-3S7.47,25.73,7.47,26.7Z"/><path class="cls-6" d="M23.37,35.7a1.75,1.75,0,0,1-3.49,0c0-1,1.74-3,1.74-3S23.37,34.74,23.37,35.7Z"/><path class="cls-7" d="M36.19,30.66a1.75,1.75,0,1,1-3.49,0c0-1,1.74-3,1.74-3S36.19,29.7,36.19,30.66Z"/></svg>