<svg id="图层_1" data-name="图层 1" xmlns="http://www.w3.org/2000/svg" xmlns:xlink="http://www.w3.org/1999/xlink" viewBox="0 0 151.89 67.28"><defs><style>.cls-1{fill:url(#未命名的渐变_174);}.cls-2{fill:url(#未命名的渐变_183);}.cls-3{fill:url(#未命名的渐变_183-2);}.cls-4{fill:url(#未命名的渐变_183-3);}.cls-5{fill:url(#未命名的渐变_183-4);}.cls-6{fill:url(#未命名的渐变_183-5);}.cls-7{fill:url(#未命名的渐变_183-6);}.cls-8{fill:url(#未命名的渐变_183-7);}.cls-9{fill:url(#未命名的渐变_183-8);}.cls-10{fill:url(#未命名的渐变_183-9);}.cls-11{fill:url(#未命名的渐变_183-10);}.cls-12{fill:url(#未命名的渐变_183-11);}.cls-13{fill:url(#未命名的渐变_183-12);}.cls-14{fill:url(#未命名的渐变_183-13);}.cls-15{fill:url(#未命名的渐变_183-14);}.cls-16{fill:url(#未命名的渐变_183-15);}</style><linearGradient id="未命名的渐变_174" x1="75.95" y1="67.28" x2="75.95" gradientUnits="userSpaceOnUse"><stop offset="0" stop-color="#2b3747" stop-opacity="0"/><stop offset="1" stop-color="#2b3747"/></linearGradient><linearGradient id="未命名的渐变_183" x1="22.24" y1="17.6" x2="22.24" y2="8.41" gradientUnits="userSpaceOnUse"><stop offset="0" stop-color="#47596f"/><stop offset="1" stop-color="#48c"/></linearGradient><linearGradient id="未命名的渐变_183-2" x1="28.19" y1="17.6" x2="28.19" y2="8.41" xlink:href="#未命名的渐变_183"/><linearGradient id="未命名的渐变_183-3" x1="34.94" y1="17.6" x2="34.94" y2="8.41" xlink:href="#未命名的渐变_183"/><linearGradient id="未命名的渐变_183-4" x1="42.45" y1="17.6" x2="42.45" y2="8.41" xlink:href="#未命名的渐变_183"/><linearGradient id="未命名的渐变_183-5" x1="50.46" y1="17.6" x2="50.46" y2="8.41" xlink:href="#未命名的渐变_183"/><linearGradient id="未命名的渐变_183-6" x1="58.91" y1="17.6" x2="58.91" y2="8.41" xlink:href="#未命名的渐变_183"/><linearGradient id="未命名的渐变_183-7" x1="67.66" y1="17.6" x2="67.66" y2="8.41" xlink:href="#未命名的渐变_183"/><linearGradient id="未命名的渐变_183-8" x1="76.56" y1="17.6" x2="76.56" y2="8.41" xlink:href="#未命名的渐变_183"/><linearGradient id="未命名的渐变_183-9" x1="85.41" y1="17.6" x2="85.41" y2="8.41" xlink:href="#未命名的渐变_183"/><linearGradient id="未命名的渐变_183-10" x1="94.15" y1="17.6" x2="94.15" y2="8.41" xlink:href="#未命名的渐变_183"/><linearGradient id="未命名的渐变_183-11" x1="102.58" y1="17.6" x2="102.58" y2="8.41" xlink:href="#未命名的渐变_183"/><linearGradient id="未命名的渐变_183-12" x1="110.51" y1="17.6" x2="110.51" y2="8.41" xlink:href="#未命名的渐变_183"/><linearGradient id="未命名的渐变_183-13" x1="117.92" y1="17.6" x2="117.92" y2="8.41" xlink:href="#未命名的渐变_183"/><linearGradient id="未命名的渐变_183-14" x1="124.57" y1="17.6" x2="124.57" y2="8.41" xlink:href="#未命名的渐变_183"/><linearGradient id="未命名的渐变_183-15" x1="130.43" y1="17.6" x2="130.43" y2="8.41" xlink:href="#未命名的渐变_183"/></defs><path class="cls-1" d="M151.89,67.28A76.5,76.5,0,0,0,0,67.28Z"/><path class="cls-2" d="M23.36,35.33,20.7,33.22l.42-.52,2.65,2.11Z"/><path class="cls-3" d="M29.13,28.87l-2.36-2.43.48-.46,2.36,2.43Z"/><path class="cls-4" d="M35.69,23.21l-2-2.71.53-.4,2,2.72Z"/><path class="cls-5" d="M43,18.41l-1.66-2.95.58-.33,1.66,2.95Z"/><path class="cls-6" d="M50.78,14.63l-1.26-3.15.62-.25,1.26,3.15Z"/><path class="cls-7" d="M59,11.89l-.84-3.28.64-.17.84,3.29Z"/><path class="cls-8" d="M67.53,10.25l-.41-3.37.67-.08.4,3.37Z"/><path class="cls-9" d="M76.2,9.72l.06-3.38h.66l0,3.39Z"/><path class="cls-10" d="M84.84,10.31,85.31,7l.66.09L85.5,10.4Z"/><path class="cls-11" d="M93.38,12l.9-3.27.64.18L94,12.2Z"/><path class="cls-12" d="M101.61,14.83l1.32-3.12.62.26-1.32,3.12Z"/><path class="cls-13" d="M109.37,18.67l1.71-2.92.57.34L109.94,19Z"/><path class="cls-14" d="M116.62,23.53l2.08-2.67.53.41-2.08,2.67Z"/><path class="cls-15" d="M123.13,29.24l2.41-2.38.47.47-2.41,2.39Z"/><path class="cls-16" d="M128.88,35.78l2.69-2.06.41.53-2.7,2.06Z"/></svg>