<svg id="图层_1" data-name="图层 1" xmlns="http://www.w3.org/2000/svg" xmlns:xlink="http://www.w3.org/1999/xlink" viewBox="0 0 560 267"><defs><style>.cls-1{fill:none;}.cls-2{fill:#222936;}.cls-3{clip-path:url(#clip-path);}.cls-4{fill:#232832;}.cls-4,.cls-5{stroke:#2b3b4d;stroke-miterlimit:10;}.cls-5{fill:#202c3a;}</style><clipPath id="clip-path"><rect class="cls-1" width="560" height="267" rx="6"/></clipPath></defs><rect class="cls-2" width="560" height="267" rx="6"/><g class="cls-3"><path class="cls-4" d="M55.42,167.14s2.29,1,2.68-3.4.46-6.89,1.45-7,1-.72,1-.72a11,11,0,0,1,.72-3.61c.66-1.31,1.71-.92,2-3.14s-.13-7.08,1.7-9.9,2-2.75,2-4.65-1.83-3.28,1-3.94,7.21,1.31,9.76-3.21,3-5.05,3.87-8.13.26-4,1.11-4.58,1.38,0,1.44-1.45-.19-.52.59-4.85.73-3.08-.45-7.86-.33-5.7-.2-7.34-1.18-9-1.9-12.91-1.38-5.18-1.12-5.77a10,10,0,0,0,2-7.6c-.46-5-.13-4.92,1.7-7s11.34-2.55,13.83-.65,7.48,4.45,8.85,5.37,4.52,3,4.79,3.34,2.62,3,2.81,3.35a6.53,6.53,0,0,1,0,3.73c-.45,1.9-2.62,5.77-.52,8.66s3.21,1.57,4,4.45.52,3.54,2,5,2.17.53,2.5,4.33,0,2.69.32,6.36-.06,4.13.33,6.55,1.18,2.23-.39,4.72-8.33,9.83-11.73,14-5,5-6,7.07,2.69,1.84-1.83,5.84-4.59,4.65-8.79,4.91-11.2-.91-13.17.66,2.75-.66,2.23,2.55-3.61,7-7.6,9.44-7.35,2.95-8.92,5a21,21,0,0,0-3,4.65c-.79,1.77-.4,3.87-2.76,7.47s-4.26,5.38-4.85,4.85-2.55-2.16-2.22-4.65,2-2.69.65-6.29S55.42,167.14,55.42,167.14Z"/><path class="cls-4" d="M0,280.77s34.86,1.85,37.77,0,22.2-11.1,23.79-11.9,21.14-7.93,27-9,18.24-4.23,19.83-6.08,42.82-7.93,42.82-7.93,7.66-11.9,17.18-15.07,21.24-6.61,29.39-6.35,20.83,2.91,21.89,2.91,11.63-7.4,12.16-9.51,4.76-10.84,7.14-11.37,6.08-2.64,8.19,4.49,2.38,10.84,4.23,11.37,11.37-2.12,11.37-3.44,1.59-.79,3.7-4.49,6.87-8.81,10.57-8.63,11.11,6,11.11,6-1.33,3.17,3.7,2.9,3.7,2.91,6.61-1.58S309.77,207,309.77,207s13,4.49,13.75,4.49,10-1.85,11.1-3.7,11.1-5,11.1-5h6.08a22.81,22.81,0,0,0,6.61-1.85c1.32-.79,4-2.65,4-4.76s-2.11-3.44,0-6.08,4.76-4.49,5.56-4.49,5.55,3.43,7.4,5.81,4.76,5.63,7.13,6.39,9.26,4.71,10.05,7.36,1.32,10.31,1.32,12.16,7.67,2.64,9,2.64,7.66,1.59,9.25,5.82,2.12,7.93,3.17,9.25,4.23,3.43,4.23-.27,2.91-4.75,0-9.25.21-9,1.29-9.78,3.47-4.23,4.79-4.23,5.29-2.38,12.16-.79,16.92,2.64,18.77,2.91,6.87-1.06,12.95,2.9,25.64,11.9,26.7,12.43,8.72,2.91,10.31-4.5,3.17-9.51,5-9.51,7.14,5.55,13.22,3.17,4.76-2.64,12.69-5a78.09,78.09,0,0,1,14.54-2.91l7.17-7.14V247.2s-2.15-5.29-3.21-5.29,7.93,10.57-.79,13.48-7.67,5.29-10.05,2.12,1.85-8.46-3.43-8.2a111.68,111.68,0,0,1-13.75.27c-6.87-.27-5.81-1.85-10.57-.27s-7.67.81-14.81,2.26-16.12.39-19.29,2.76a124.74,124.74,0,0,1-11.1,6.61l-10.31,2.91s2.11,3.7-3.18,4.76-10.31,5-17.71,7.14-17.18,2.7-21.14,5.84-16.13,7.37-18.51,2.61-1.58-1.32,3.17-7.93,5.29-10,5.29-10-1.32-2.91-1.85-4-.79-1.32-7.93,1.59-5,1.06-13,3.17-19,6.08-21.41,8.46-4.76,6.35-8.73,8.46,0,1.1-5.55,2.4-4.23.24-7.13,2.62-5.82,4.76-7.93,6.88-5,5-8.2,6.6a50.54,50.54,0,0,1-8.72,2.89h-9.78s7.13-8.17,7.13-11.87,2.65-8.2,2.91-13.48,1.32-8.2,4.76-11.37,9.52-6.08,11.37-9.25,6.34-4,6.34-7.79-.26-8.34-.26-8.34-6.88,4-9.52,4.23-7.4,0-10.31,0-12.69-.26-15.33.27-11.1,2.11-15.07,2.38-20.35,1.46-20.35,1.46-8.2.12-12.16,3.29S255.58,257,246.33,262a55.88,55.88,0,0,1-17.71,6.08l-10.84-3.7c-.79-.26,2.65-2.64-8.19-2.64H197.74s-1.11,3.43-1.63,5,.62,6.61,1.63,9.25,3.65,2.64,2.33,4.49-2.91,3.44-4.23,5.29-1.06.79-3.43,4.76,3.7,4.49-4.23,4.76-4,5-10.84-.53-9-7.93-11.1-7.93-12.16-4.5-13-5.55-6.87.26-14.8,3.7-10-3.17-15.33-4a69.49,69.49,0,0,0-9.25-.79l-10.84,3.7s-37.8,7.4-39.39,7.93-6.08,6.61-7.4,6.87-7.93,6.59-7.93,6.59H0Z"/><path class="cls-5" d="M0,292.66s62.48-11.5,79.14-23,61.06-17.05,67.8-17.05,13.88.39,25.77-4,21-9.41,28.55-10.26S214,236,219.5,236.76s13.48,1.94,14.67-.22,1.32-9.17,2.56-12,1.76-6.52,4.4-1.58,10.75,10.92,10.75,10.92,3-.88,3.53-1.06,1.93,2.65,1.93,2.65a23,23,0,0,1,3.88-8.81c3-3.88,3.35-5.47,5.11-4.23s8.11-2.12,9.34-3.88,3.17-4.4,6,0,8.29,4.76,9.17,4.41-1.24-4.06,3.7-.88,5.64,4.58,7.05,3.87,1.23-6.87,4.05-6,6.34-1.94,8.28,2.12,4.23,4.93,5.11,4.58a31.13,31.13,0,0,1,5.82-2.47,16.35,16.35,0,0,1,7.93-.53c.7.18,1.76,2.64,1.94-.88s-4.23-4.41,0-5.46,2.64,1.23,7.05.17,7.4-2.11,7.4-3,2.82-1.06,3.35,0,1.76,2.82,2.46.35,3.7-5.29,3.7-5.29,5.11.71,6,2.65a42.73,42.73,0,0,0,2.46,4.4s2.29,1.59,3.18-4.05,2.46-2.82,1.4-7.75.36-6.7.36-6.7.88-1.41,3.7,1.76,9.34,2.29,11.1,6.17-3,4,0,8.63,3.52-.17,3.52,7-2.11,8.29,1.06,9.87,2.82-1.58,5.64,2.47,3.7,5.11,4.05,6.7.53-3.71,4.59-2.82,8.28,2.11,9.16,4.93,8.11-.35,8.11-1.06,5.46,2.12,4.75,4.76-4.28,6.52.07,1.94,11-3.7,5.57-7.23-9-5.28-6.52-8.63,4.59-4.41,4.59-4.94,2.82-.52-1.24-2.82-4.4-4.58-2.47-5.11,1.41-2.29,4.23-.52,1.94,2.11,7.76-.36,9.34,0,14.62,1.06,12.52,2.12,17.63,3.7,1.76,3.7,10.92,4.58l9.17.88s5.9,16.22,14.1,6.17,10.3-10.31,17.18-12.42,17.44-2.65,17.44-2.65a55.17,55.17,0,0,0,6.88,1.06c1.85,0,9-4,9-4l2.42.53s-.3,2.9-4.27,4.23,4.27,3.7,4.27,5.81v10.31L545.3,228.16s-9.78-2.37-10.84-1.32,3.7,4.76,4.49,5.55,5,2.65,6.61,4.5,4.23,4.76,5.29,6.87,4.23,4.49,1.06,3.44-10.84-5.29-13.22-6.61-4.23-4-6.61-5-5.82-3.44-8.46-1.59,9.25,6.08,9.25,6.08-1.85,3.17-2.9,3.44-9.26,1.85-11.64-.53-4-4.5-6.34-4-3.7,3.17-7.4,4.76-10.57-.22-12.69,1.47-2.11,1.44-6.34,1.7a36.74,36.74,0,0,0-7.14.8c-4.76.79-6.61,2.64-11.9.79s-5-6.3-8.72-3.29-6.61,5.14-7.14,6.46-2.38,3.17-3.17,5-2.91,4.23-4,6.08.53,4-7.14-.79-7.93-1.06-7.93-1.06l-9.25,7.14s-2.65,5.82-3.44,6.61-6.61,2.11-6.61,2.11,7.93-3.43,7.67-8.72.53-7.67.53-7.67l5-4.75s-7.4,4-10.57,1.58-4-7.13-6.88-7.13-14.8,2.37-14.8,2.37-.26,2.65-5,3.7-4.76,2.12-6.08,4a28.32,28.32,0,0,1-9.78,7.4c-4.23,1.85-11.63,4-14.81,5.55A35.38,35.38,0,0,1,342.55,276c-2.64,0-8.46,11.63-9.25,11.63s-3.17,4.76-3.44,5-6.08,4.76-7.14,5.55,0-10.83,0-10.83.53-.8.53-5.55,4-9.26,6.08-9.52,7.4-1.06,8.73-3.7,3.17-3.17,3.17-5.29-1.59-1.58,0-4,2.91-1.85,4.76-3.44,2.64.79,2.64-3.17V246.4c0-4.23-.53-5.28-.53-6.87s.79-3.17,0-4,1.59-3.7-.79-3.7-10.58-1.06-12.69,1.58-8.2,8.2-11.37,8.46-5.81,1.85-10.83.53a55.93,55.93,0,0,0-12.69-1.85c-2.65,0-10.31,0-13.22.79s-13.22.53-15.33,0-12.16,1.59-14,4.23-4,8.46-9.78,9.25-10.31-.79-15.33-2.38-1.85-2.64-12.69-2.9-23.53.26-25.11.53-3.71,1-5.82,1.32a37.66,37.66,0,0,0-9.25,3.43c-1.06.8-10.05,4.23-16.13,6.35s17.45,7.4,19.83,12.16-2.91,9-3.7,9-15.07-10.3-15.86-11.1S157,266.49,155.4,266s-13-.8-13-.8L141.39,275s-1.85-1.05-7.93-1.05-4.76-1.85-9.25-.53,7.93-11.37-2.65-7.93-16.12,6.87-19,8.19a56.92,56.92,0,0,0-6.87,3.7C93,278.92,66.84,281,62.09,285S44.64,294.78,42,295.57s-10.58,4.23-12.43,5-13.21,4.74-13.21,4.74H0Z"/><path class="cls-4" d="M420,86.6s12.09,6.12,7.07,9.19-13.54-1.7-13.54-1.7l-4.76,2.73V91.71L414.57,88l1.7-4.09Z"/></g></svg>