<svg xmlns="http://www.w3.org/2000/svg" xmlns:xlink="http://www.w3.org/1999/xlink" viewBox="0 0 30.02 33.6"><defs><style>.cls-1{fill:url(#未命名的渐变_119);}.cls-2{fill:url(#未命名的渐变_120);}.cls-3{fill:url(#未命名的渐变_106);}</style><linearGradient id="未命名的渐变_119" y1="14.53" x2="23.89" y2="14.53" gradientUnits="userSpaceOnUse"><stop offset="0" stop-color="#8ed2f7"/><stop offset="1" stop-color="#4487cb"/></linearGradient><linearGradient id="未命名的渐变_120" x1="8.18" y1="19.66" x2="30.02" y2="19.66" gradientUnits="userSpaceOnUse"><stop offset="0" stop-color="#4487cb"/><stop offset="1" stop-color="#8ed2f7"/></linearGradient><linearGradient id="未命名的渐变_106" x1="8.18" y1="15.77" x2="23.89" y2="15.77" gradientUnits="userSpaceOnUse"><stop offset="0" stop-color="#adf1ff"/><stop offset="1" stop-color="#99def7"/></linearGradient></defs><g id="图层_75" data-name="图层 75"><path class="cls-1" d="M4.26,16.8A10.75,10.75,0,0,1,21.7,8.38l2.19-3.79L16.73.46a3.46,3.46,0,0,0-3.44,0L1.72,7.14a3.44,3.44,0,0,0-1.72,3V23.48a3.46,3.46,0,0,0,1.72,3l4.5,2.6L8,24.93A10.71,10.71,0,0,1,4.26,16.8Z"/><path class="cls-2" d="M28.3,7.14,25.83,5.71,23.35,10A10.76,10.76,0,0,1,9.86,26.24l-1.68,4,5.11,2.95a3.46,3.46,0,0,0,3.44,0L28.3,26.46a3.46,3.46,0,0,0,1.72-3V10.12A3.44,3.44,0,0,0,28.3,7.14Z"/><path class="cls-3" d="M17.12.68,8.63,17.89a.64.64,0,0,0,.58.92H13L8.18,30.19l1.17.67L22.72,15.67a.8.8,0,0,0-.6-1.33H18l5.85-9.75Z"/></g></svg>